/* XPM */
static char *_42f8ab0ec884878d084e703a9b2403836CE4w6Nx1P33rMj[] = {
/* columns rows colors chars-per-pixel */
"64 64 172 2 ",
"   c None",
".  c #020A07",
"X  c #040E0A",
"o  c #06140C",
"O  c #08140E",
"+  c #07190E",
"@  c #081610",
"#  c #0A1A12",
"$  c #101F18",
"%  c #0B2315",
"&  c #0B2B16",
"*  c #0C261A",
"=  c #0E2B1C",
"-  c #12211A",
";  c #102D1F",
":  c #0E341C",
">  c #0F3A1E",
",  c #103A1F",
"<  c #112F21",
"1  c #192F25",
"2  c #123324",
"3  c #193126",
"4  c #123C24",
"5  c #153D2A",
"6  c #25382E",
"7  c #263C31",
"8  c #124324",
"9  c #134926",
"0  c #16422D",
"q  c #164C2B",
"w  c #16532C",
"e  c #18552F",
"r  c #17582E",
"t  c #18592F",
"y  c #174731",
"u  c #194731",
"i  c #194932",
"p  c #1B5335",
"a  c #1B5E36",
"s  c #1C5638",
"d  c #1D5C3A",
"f  c #2C473A",
"g  c #234D39",
"h  c #2D4B3D",
"j  c #254335",
"k  c #23543C",
"l  c #235B3E",
"z  c #1A6435",
"x  c #1E643D",
"c  c #1E6A3D",
"v  c #1C6B37",
"b  c #1F773D",
"n  c #1F7A3E",
"m  c #22643F",
"M  c #206A3F",
"N  c #207B3F",
"B  c #265E40",
"V  c #2D5944",
"C  c #2E5643",
"Z  c #315B47",
"A  c #3F574B",
"S  c #355948",
"D  c #1F6E40",
"F  c #1F7041",
"G  c #2E6147",
"H  c #216D41",
"J  c #286A45",
"K  c #2D6648",
"L  c #2C6948",
"P  c #3A624F",
"I  c #316F4D",
"U  c #217443",
"Y  c #287247",
"T  c #237B46",
"R  c #2A7449",
"E  c #257F49",
"W  c #2A7D4B",
"Q  c #3D6653",
"!  c #337750",
"~  c #3A7C56",
"^  c #387753",
"/  c #466858",
"(  c #4B6D5D",
")  c #50675C",
"_  c #52695D",
"`  c #4B715F",
"'  c #417D5B",
"]  c #4A7660",
"[  c #4F7F65",
"{  c #527865",
"}  c #5A7C6C",
"|  c #607A6E",
" . c #647D71",
".. c #238246",
"X. c #238845",
"o. c #258449",
"O. c #2A834D",
"+. c #268C4C",
"@. c #2A8B4F",
"#. c #27924E",
"$. c #28934F",
"%. c #2C8C51",
"&. c #318E55",
"*. c #3E855B",
"=. c #3E8F5E",
"-. c #338253",
";. c #279650",
":. c #289651",
">. c #279850",
",. c #299B53",
"<. c #37965B",
"1. c #339B59",
"2. c #399D5E",
"3. c #2BA355",
"4. c #2CA857",
"5. c #2DAB59",
"6. c #36A55E",
"7. c #2EB35C",
"8. c #2FB95E",
"9. c #31B05D",
"0. c #30BC5F",
"q. c #3E9C61",
"w. c #3AA260",
"e. c #3AB063",
"r. c #30BE60",
"t. c #428A5F",
"y. c #4A8463",
"u. c #518F6B",
"i. c #469B66",
"p. c #4E996B",
"a. c #599271",
"s. c #5B9B75",
"d. c #628373",
"f. c #688778",
"g. c #639278",
"h. c #689D7E",
"j. c #44A066",
"k. c #4BAB6E",
"l. c #49A76C",
"z. c #45B16B",
"x. c #52AA73",
"c. c #5DA579",
"v. c #53B275",
"b. c #5EB57D",
"n. c #65A87F",
"m. c #60B57F",
"M. c #31C162",
"N. c #718E80",
"B. c #739383",
"V. c #799588",
"C. c #7C9B8C",
"Z. c #6FA886",
"A. c #73AE8A",
"S. c #68BC86",
"D. c #6DBD8A",
"F. c #76B48E",
"G. c #72BC8D",
"H. c #7DB693",
"J. c #859E92",
"K. c #87A094",
"L. c #89A196",
"P. c #85AA95",
"I. c #8DA59A",
"U. c #90A69B",
"Y. c #92A99E",
"T. c #88B59A",
"R. c #96ADA2",
"E. c #93BEA4",
"W. c #9FB3A9",
"Q. c #9BBAA9",
"!. c #90CAA5",
"~. c #9AC9AC",
/* pixels */
"                                                                                                                                ",
"                                                                                                                                ",
"                                                                                                                                ",
"                                                                                                                                ",
"                                                                                                                                ",
"                                                  j                                                                             ",
"                                                  $       f                                                                     ",
"                                                    6     # A                                                                   ",
"                                                    O _     # _                                                                 ",
"                                                      6 Y.    -  .                                                              ",
"                                                      @ |       1 N.                                                            ",
"                                                      . h Y.    X j C.                                                          ",
"                                                        2 d.      # C J.                                                        ",
"                                                        < Z I.    O 2 P I.                                                      ",
"                                                        2 u d.      = y Q R.                                                    ",
"                                                      X 2 y Q R.    % 0 u ` W.                                                  ",
"                                                      # 0 u g B.    # 5 y i }                                                   ",
"                                                      = y u y }       8 i y k N.                                                ",
"                                                    @ 5 i u y Q       4 i i y Z L.                                              ",
"                                                    - y i i y Z J.    4 s i i y ( W.                                            ",
"                                                  * 5 i i i y k V.    8 s i i i i f.                                            ",
"                                                  2 u u i i i k B.    9 m i i i i Z L.                                          ",
"                                                3 y i u i i s B B.    e H i i i i i {                                           ",
"                                              < 5 i u i i s s K B.    z U p s s s i B C.                                        ",
"                                            < 0 i i i i i d d ^       n U s s s s p p ]                                         ",
"                                          < 0 y i i i u p x c y.    & +.U a s s s d s B C.                                      ",
"                                        < 5 u i i y i i x H R a.    9 ,.H d x d d d s d y.                                      ",
"                                      = 5 i i u i y u l U U *.      z 3.x x x x x x x d K P.                                    ",
"                                    - 0 i y i i i u s U U W p.      X.:.c x M x x x x x x g.                                    ",
"                                    5 y y i i i i i U T T =.      9 ,.o.H H H H H M D x x ' Q.                                  ",
"                                  2 y i i i i i i H o.o.&.p.      v 3.U H U U H H D H c c R P.                                  ",
"                                2 y i i i y i i H o.o.%.i.      8 #.@.U U U U U U U U U H H h.                                  ",
"                              * u i i i i u i d o.+.+.q.        v >...T U T T U F T U U F F u.                                  ",
"                              5 y i i i i i s o.+.+.1.x.      9 o.+.T E E T T T T T T T T F t.E.                                ",
"                            ; y i i i i i s T +.+.:.k.        c +.o.o.o.o.o.o.o.E T E T T T -.T.                                ",
"                          # 0 i i s i s i H +.#.:.w.b.      w ..+.o.+.o.o.o.o.o.o.o.E E E T W H.                                ",
"                          = i s s s s s s o.:.:.,.x.      4 c o.+.+.+.+.+.+.+.+.+.o.o.o.o.o.W A.                                ",
"                          2 s s s s s s D +.+.;.6.D.      p T +.+.#.@.+.+.+.+.+.+.+.+.+.o.T %.A.                                ",
"                        + q d d d s d x T +.$.>.k.      : m o.$.:.#.:.$.:.:.:.+.+.+.+.+.+.o.%.A.                                ",
"                        % s d d m x x x o.#.;.,.b.      4 M +.>.:.:.:.:.:.:.:.:.:.#.:.#.%.+.:.F.                                ",
"                        * d x x x x x H o.@.;.,.S.    o 0 c $.,.,.,.,.,.,.,.,.,.,.;.;.:.:.+.<.F.                                ",
"                        & x c x c M D H o.#.:.,.G.    o 0 x >.,.,.3.3.3.3.,.,.,.,.,.:.;.;.#.i.                                  ",
"                        & x H H H H H U o.%.:.,.G.    . 2 x >.3.3.3.3.3.3.3.3.3.,.,.,.,.;.;.x.                                  ",
"                        = M H U U U U U o.+.:.,.D.      = p $.4.4.4.4.4.5.4.4.3.4.3.3.,.>.1.S.                                  ",
"                        % x U U U T U T o.+.$.$.S.      # 0 o.5.5.5.5.5.5.5.5.3.4.3.3.,.,.k.                                    ",
"                        # a T T T T T T o.o.+.#.k.      . = x 5.7.7.7.7.7.7.7.5.5.5.4.3.e.v.                                    ",
"                        o e E T E E o.T o.+.+.#.2.!.      O 5 #.7.7.7.7.7.7.7.7.5.5.5.5.z.                                      ",
"                          4 T ..o.o.o.o.o.o.o.+.%.G.        # i 4.r.0.0.0.0.7.7.7.5.5.e.              C                         ",
"                          % N o.o.+.+.+.+.o.o.o.+.l.          @ e 5.M.r.r.0.8.7.7.7.9.              3 _                         ",
"                          o e +.+.+.+.+.@.+.o.o.o.:.T.          X 4 +.7.r.r.8.7.4.3.                h                           ",
"                            & T #.+.%.:.;.:.+.T o.o.i.~.            + 8 z n T n                   ; /                           ",
"                            o p $.;.;.:.:.>.:.o.T E X.c.                                        * g }                           ",
"                              % N >.>.,.,.,.,.$.E T T O.n.                                      5 /                             ",
"                                > +.,.3.3.,.3.3.>.T U T o.s.E.                              0 q B (                             ",
"                                  9 >.3.3.3.3.3.3.,.o.U U U y.Z.                        s s p s Q                               ",
"                                  o w ,.4.4.4.4.3.3.3.#.T U F T t.s.h.h.          I J H d s l G                                 ",
"                                    o q $.7.7.4.5.5.3.3.,.@.T U H H R ^ ~ ~ ^ ! R J H x x d G                                   ",
"                                        > ..5.7.5.5.5.3.3.,.,.:.+.o...T T T T U U M c x x l                                     ",
"                                          & z ,.7.5.5.4.3.3.>.,.:.$.+.+.o.E T U U c c x s                                       ",
"                                              > v >.5.5.3.3.3.>.:.#.+.o.o.E T T U c x s                                         ",
"                                                  : t N #.>.,.>.>.#.+.+.o.T F c a p                                             ",
"                                                        : 9 t z v c c v a e q                                                   ",
"                                                                                                                                ",
"                                                                                                                                "
};
