/* XPM */
static char *bbc8261c24234cc29467795a576ff36415tYUtFmzakCIvaZ[] = {
/* columns rows colors chars-per-pixel */
"16 16 73 1 ",
"  c None",
". c #163F2C",
"X c #16412D",
"o c #17412D",
"O c #184B30",
"+ c #194932",
"@ c #194C33",
"# c #1A5134",
"$ c #1A5D33",
"% c #1B5B37",
"& c #1A5C34",
"* c #1F5539",
"= c #1D5D3A",
"- c #294E3B",
"; c #2D4B3D",
": c #27503D",
"> c #23543C",
", c #29543F",
"< c #1D633B",
"1 c #1D6439",
"2 c #1F653D",
"3 c #1F713F",
"4 c #1F7B3F",
"5 c #20783F",
"6 c #355646",
"7 c #256141",
"8 c #2E6043",
"9 c #216940",
"0 c #216B40",
"q c #216A41",
"w c #296945",
"e c #38644F",
"r c #207041",
"t c #207340",
"y c #217142",
"u c #207640",
"i c #287143",
"p c #217942",
"a c #217E43",
"s c #227B46",
"d c #237E47",
"f c #247F48",
"g c #287A49",
"h c #3F7E5A",
"j c #238047",
"k c #238645",
"l c #2A874E",
"z c #268A4B",
"x c #268B4C",
"c c #268C4D",
"v c #29884D",
"b c #2A8C4F",
"n c #27904E",
"m c #27914E",
"M c #28934F",
"N c #318251",
"B c #368355",
"V c #348E56",
"C c #3D8C5D",
"Z c #2A9050",
"A c #2E9253",
"S c #299B52",
"D c #289C51",
"F c #2A9E53",
"G c #319356",
"H c #3D935E",
"J c #379C5C",
"K c #29A353",
"L c #2AA155",
"P c #2BA356",
"I c #2CA958",
"U c #2EA959",
"Y c #2EB25B",
/* pixels */
"                ",
"                ",
"                ",
"       6;       ",
"       :-,      ",
"      o>8#e     ",
"     o@wi<7     ",
"    .+qNpyqh    ",
"    +2G jjsB    ",
"   @=v ycMxV    ",
"   =yA uPPSJ    ",
"   <av &IYI     ",
"   $xcH 4K      ",
"    aDZC   >    ",
"     kDMlgq     ",
"       5u       "
};
