/* XPM */
static char *_78b9c01f59c424b90915d9297c414f1uGMJjl1sRXEznb1t[] = {
/* columns rows colors chars-per-pixel */
"32 32 225 2 ",
"   c None",
".  c #0F2D1E",
"X  c #0F2E1E",
"o  c #0E311E",
"O  c #0E351D",
"+  c #102F21",
"@  c #133525",
"#  c #103F22",
"$  c #133826",
"%  c #143927",
"&  c #123F24",
"*  c #133D26",
"=  c #153D2A",
"-  c #163F2C",
";  c #2A3B32",
":  c #16402B",
">  c #16402D",
",  c #16422D",
"<  c #17432D",
"1  c #17432F",
"2  c #16472C",
"3  c #1A402E",
"4  c #164A2B",
"5  c #17482D",
"6  c #174C2E",
"7  c #145029",
"8  c #17532D",
"9  c #184530",
"0  c #184731",
"q  c #194731",
"w  c #194732",
"e  c #184931",
"r  c #184832",
"t  c #194832",
"y  c #194932",
"u  c #194B33",
"i  c #1A4B33",
"p  c #1D4B35",
"a  c #1A4E34",
"s  c #185230",
"d  c #195532",
"f  c #1A5134",
"g  c #1B5035",
"h  c #1C5036",
"j  c #1A5634",
"k  c #1B5637",
"l  c #1B5737",
"z  c #1C5638",
"x  c #1C5738",
"c  c #1D5938",
"v  c #1C5939",
"b  c #1D5D3A",
"n  c #1D5E3A",
"m  c #1D5E3B",
"M  c #1D5F3B",
"N  c #1F5F3C",
"B  c #214031",
"V  c #2F4038",
"C  c #334A3F",
"Z  c #25513C",
"A  c #22573C",
"S  c #26553E",
"D  c #196032",
"F  c #1A6135",
"G  c #196534",
"H  c #1B6936",
"J  c #1E603B",
"K  c #1E633B",
"L  c #1C6638",
"P  c #1D663A",
"I  c #1E623C",
"U  c #1D653D",
"Y  c #1F663E",
"T  c #1F673E",
"R  c #1C6E38",
"E  c #1D6E3A",
"W  c #1F683E",
"Q  c #1F693F",
"!  c #1F703E",
"~  c #1F703F",
"^  c #1F733E",
"/  c #1F753D",
"(  c #20673F",
")  c #2D5642",
"_  c #2C5743",
"`  c #285F42",
"'  c #305041",
"]  c #355F4C",
"[  c #3A5D4C",
"{  c #206C40",
"}  c #206D40",
"|  c #216C41",
" . c #206E40",
".. c #216E41",
"X. c #2F6449",
"o. c #217041",
"O. c #217042",
"+. c #217242",
"@. c #217343",
"#. c #227543",
"$. c #257045",
"%. c #227644",
"&. c #227744",
"*. c #247545",
"=. c #207B40",
"-. c #217942",
";. c #227E43",
":. c #227844",
">. c #227845",
",. c #237945",
"<. c #227A45",
"1. c #227B45",
"2. c #237A46",
"3. c #237B46",
"4. c #257A47",
"5. c #227F44",
"6. c #247F47",
"7. c #2A7349",
"8. c #2B774B",
"9. c #277F4A",
"0. c #287E4A",
"q. c #2F7C4E",
"w. c #2D7E4E",
"e. c #31714D",
"r. c #3E6653",
"t. c #3A7755",
"y. c #456C5A",
"u. c #556E63",
"i. c #527665",
"p. c #527A66",
"a. c #5C7F6F",
"s. c #228143",
"d. c #238045",
"f. c #238445",
"g. c #248048",
"h. c #248148",
"j. c #248248",
"k. c #248349",
"l. c #248449",
"z. c #258449",
"x. c #248648",
"c. c #25844A",
"v. c #25854A",
"b. c #25864A",
"n. c #25874A",
"m. c #2D824F",
"M. c #28874C",
"N. c #25884B",
"B. c #25894B",
"V. c #26894B",
"C. c #26894C",
"Z. c #258A4C",
"A. c #258B4C",
"S. c #268A4C",
"D. c #268B4C",
"F. c #268C4D",
"G. c #268D4D",
"H. c #278D4D",
"J. c #278E4D",
"K. c #278F4D",
"L. c #26934C",
"P. c #27914F",
"I. c #28934F",
"U. c #3E835B",
"Y. c #3D855A",
"T. c #289250",
"R. c #289450",
"E. c #289550",
"W. c #2B9451",
"Q. c #289650",
"!. c #289651",
"~. c #289851",
"^. c #299952",
"/. c #299B53",
"(. c #299C53",
"). c #299D53",
"_. c #2A9D53",
"`. c #2C9954",
"'. c #2F9856",
"]. c #2F9A56",
"[. c #2A9D54",
"{. c #2A9E54",
"}. c #2F9C57",
"|. c #309C57",
" X c #369359",
".X c #3D945F",
"XX c #37985B",
"oX c #2AA055",
"OX c #2AA155",
"+X c #2BA356",
"@X c #2AA554",
"#X c #2BA455",
"$X c #2BA456",
"%X c #2BA556",
"&X c #2BA657",
"*X c #2CA757",
"=X c #2CA858",
"-X c #2CA958",
";X c #2CAC58",
":X c #2DAC59",
">X c #2DAD59",
",X c #2DAE5A",
"<X c #2DAF5A",
"1X c #31AC5C",
"2X c #2DB05B",
"3X c #2DB25B",
"4X c #2EB45C",
"5X c #2EB65C",
"6X c #2FB75E",
"7X c #2FBA5F",
"8X c #3BA762",
"9X c #55856B",
"0X c #479566",
"qX c #489A67",
"wX c #4D9369",
"eX c #4E9C6C",
"rX c #53916D",
"tX c #52996E",
"yX c #599572",
"uX c #668576",
"iX c #41A666",
"pX c #4DA26D",
"aX c #50A770",
"sX c #56B478",
"dX c #63B682",
/* pixels */
"                                                                ",
"                                                                ",
"                                                                ",
"                                                                ",
"                          V   ;                                 ",
"                            u.  '                               ",
"                            '     [                             ",
"                            - 9X  % y.                          ",
"                            > r.  o p i.                        ",
"                          @ t _   O e Z uX                      ",
"                          9 t S   # g t ]                       ",
"                        > t t `   7 n a h p.                    ",
"                      - t t x e.  G W x k X.                    ",
"                    > t q g { U.  =.{ J J J 9X                  ",
"                  = t t t { m.    v.{ W W U y.                  ",
"                % q t t { M..X  E v.@.o.o.^ 8.                  ",
"              + q t t I S.XX    d.g.1.1.1.@.*.yX                ",
"              : a a c v.|.    L N.v.k.k.g.g.6.wX                ",
"            + a x x @.I.iX    1.H.H.H.S.N.N.v.0X                ",
"            & n n I k.`.sX  d H.R.R.R.R.P.H.N.qX                ",
"            2 ( U { S.|.    k R.oX{.{.{.~.I.R.pX                ",
"            6 { o.#.S.`.    4 ~.*X*X=XoXoX{.}.                  ",
"            4 #.1.4.v.W.dX  X N.3X>X>X>X*XoX8X                  ",
"            & 1.9.k.k.S.aX    s >X7X7X4X3X1X                    ",
"              ^ S.H.N.l. X      F @X4X3X>X                      ",
"              8 H.R.R.H.k.eX        !           B               ",
"                ^ [.{.{.v.0.tX                > )               ",
"                  f.&X*XoXN.4.Y.rX          c A                 ",
"                    s.=X=X*X~.N.k.w.q.8.$.( (                   ",
"                      H I.*XoXoXT.S.k.1.{ J                     ",
"                          D / =.d.=.( P                         ",
"                                                                "
};
